<?xml version="1.0" encoding="UTF-8" standalone="no"?>
<!DOCTYPE svg PUBLIC "-//W3C//DTD SVG 1.1//EN" "http://www.w3.org/Graphics/SVG/1.1/DTD/svg11.dtd">
<svg width="100%" height="100%" viewBox="0 0 2261 276" version="1.1" xmlns="http://www.w3.org/2000/svg" xmlns:xlink="http://www.w3.org/1999/xlink" xml:space="preserve" xmlns:serif="http://www.serif.com/" style="fill-rule:evenodd;clip-rule:evenodd;stroke-linejoin:round;stroke-miterlimit:2;">
    <g transform="matrix(1,0,0,1,-206.683,-57.3712)">
        <g transform="matrix(1,0,0,1,163.223,-39.8757)">
            <text x="308.911px" y="310.013px" style="font-family:'Charter-Bold', 'Charter', serif;font-weight:700;font-size:288px;fill:white;">s<tspan x="431.535px " y="310.013px ">i</tspan></text>
            <text x="513.378px" y="310.013px" style="font-family:'Charter-Bold', 'Charter', serif;font-weight:700;font-size:288px;fill:white;">g</text>
            <text x="672.003px" y="310.013px" style="font-family:'Charter-Bold', 'Charter', serif;font-weight:700;font-size:288px;fill:white;">n</text>
            <text x="831.549px" y="310.013px" style="font-family:'Charter-Bold', 'Charter', serif;font-weight:700;font-size:288px;fill:white;">o</text>
            <text x="984.52px" y="310.013px" style="font-family:'Charter-Bold', 'Charter', serif;font-weight:700;font-size:288px;fill:white;">r<tspan x="1100.84px " y="310.013px ">e</tspan></text>
            <text x="1287.45px" y="310.013px" style="font-family:'Charter-Bold', 'Charter', serif;font-weight:700;font-size:288px;fill:white;">c<tspan x="1417.07px " y="310.013px ">o</tspan></text>
            <text x="1575.8px" y="310.013px" style="font-family:'Charter-Bold', 'Charter', serif;font-weight:700;font-size:288px;fill:white;">cktail</text>
        </g>
        <g transform="matrix(-1.21521,-1.4882e-16,1.29197e-16,-1.05498,641.555,263.667)">
            <path d="M279.271,89.832L357.858,182.724L200.685,182.724L279.271,89.832Z" style="fill:white;"/>
        </g>
        <g transform="matrix(2.20265,0,0,1.21521,-393.221,-37.4563)">
            <rect x="311.966" y="133.503" width="7.491" height="122.027" style="fill:white;"/>
        </g>
        <g transform="matrix(1.34873e-16,2.20265,-0.734327,4.49645e-17,445.02,-430.588)">
            <path d="M319.458,139.12C319.458,136.02 318.619,133.503 317.585,133.503L313.839,133.503C312.806,133.503 311.966,136.02 311.966,139.12L311.966,249.912C311.966,253.012 312.806,255.529 313.839,255.529L317.585,255.529C318.619,255.529 319.458,253.012 319.458,249.912L319.458,139.12Z" style="fill:white;"/>
        </g>
    </g>
</svg>
