<?xml version="1.0" encoding="UTF-8" standalone="no"?>
<!DOCTYPE svg PUBLIC "-//W3C//DTD SVG 1.1//EN" "http://www.w3.org/Graphics/SVG/1.1/DTD/svg11.dtd">
<svg width="100%" height="100%" viewBox="0 0 2622 392" version="1.1" xmlns="http://www.w3.org/2000/svg" xmlns:xlink="http://www.w3.org/1999/xlink" xml:space="preserve" xmlns:serif="http://www.serif.com/" style="fill-rule:evenodd;clip-rule:evenodd;stroke-miterlimit:1.5;">
    <g transform="matrix(4.16667,0,0,4.16667,-357.966,-960.728)">
        <g transform="matrix(0.91,0,0,1,16.6887,0)">
            <g>
                <g transform="matrix(1,0,0,1,185.43,308.281)">
                    <text x="0px" y="0px" style="font-family:'Georgia-Bold', 'Georgia', serif;font-weight:700;font-size:75.037px;fill:white;">s</text>
                </g>
                <g transform="matrix(1,0,0,1,220.975,308.281)">
                    <text x="0px" y="0px" style="font-family:'Georgia-Bold', 'Georgia', serif;font-weight:700;font-size:75.037px;fill:white;">i</text>
                </g>
            </g>
        </g>
        <g transform="matrix(0.91,0,0,1,239.252,308.281)">
            <text x="0px" y="0px" style="font-family:'Georgia-Bold', 'Georgia', serif;font-weight:700;font-size:75.037px;fill:white;">g</text>
        </g>
        <g transform="matrix(0.91,0,0,1,25.1811,0)">
            <g>
                <g transform="matrix(1,0,0,1,279.79,308.281)">
                    <text x="0px" y="0px" style="font-family:'Georgia-Bold', 'Georgia', serif;font-weight:700;font-size:75.037px;fill:white;">n</text>
                </g>
                <g transform="matrix(1,0,0,1,326.158,308.281)">
                    <text x="0px" y="0px" style="font-family:'Georgia-Bold', 'Georgia', serif;font-weight:700;font-size:75.037px;fill:white;">o</text>
                </g>
            </g>
        </g>
        <g transform="matrix(0.91,0,0,1,32.4432,0)">
            <g>
                <g transform="matrix(1,0,0,1,360.48,308.281)">
                    <text x="0px" y="0px" style="font-family:'Georgia-Bold', 'Georgia', serif;font-weight:700;font-size:75.037px;fill:white;">r</text>
                </g>
                <g transform="matrix(1,0,0,1,396.574,308.281)">
                    <text x="0px" y="0px" style="font-family:'Georgia-Bold', 'Georgia', serif;font-weight:700;font-size:75.037px;fill:white;">e</text>
                </g>
            </g>
        </g>
        <g transform="matrix(0.91,0,0,1,39.9512,0)">
            <g>
                <g transform="matrix(1,0,0,1,443.903,308.281)">
                    <text x="0px" y="0px" style="font-family:'Georgia-Bold', 'Georgia', serif;font-weight:700;font-size:75.037px;fill:white;">c</text>
                </g>
                <g transform="matrix(1,0,0,1,482.191,308.281)">
                    <text x="0px" y="0px" style="font-family:'Georgia-Bold', 'Georgia', serif;font-weight:700;font-size:75.037px;fill:white;">oc</text>
                </g>
            </g>
        </g>
        <g transform="matrix(0.91,0,0,1,50.0007,0)">
            <g>
                <g transform="matrix(1,0,0,1,555.564,308.281)">
                    <text x="0px" y="0px" style="font-family:'Georgia-Bold', 'Georgia', serif;font-weight:700;font-size:75.037px;fill:white;">k</text>
                </g>
                <g transform="matrix(1,0,0,1,603.575,308.281)">
                    <text x="0px" y="0px" style="font-family:'Georgia-Bold', 'Georgia', serif;font-weight:700;font-size:75.037px;fill:white;">tail</text>
                </g>
            </g>
        </g>
    </g>
    <path d="M281.554,77.542L68.961,77.542L78,321.791C78,328.384 83.353,333.737 89.947,333.737L260.569,333.737C267.162,333.737 272.515,328.384 272.515,321.791L281.554,77.542ZM152.221,234.293L78.079,253.091L96.876,327.234L171.019,308.436L152.221,234.293ZM272.437,259.87L207.946,218.742L166.818,283.232L231.309,324.361L272.437,259.87Z" style="fill:white;stroke:white;stroke-width:8.33px;"/>
    <path d="M43.655,52.647C43.655,52.647 46.393,105.618 45.781,105.618C16.724,105.618 0,81.704 0,52.647C0,23.59 23.59,0 52.647,0C81.723,0 105.294,23.571 105.294,52.647L43.655,52.647Z" style="fill:white;"/>
    <g transform="matrix(1.07253,-0.272651,0.272651,1.07253,-79.5253,2.15762)">
        <path d="M149.293,263.464C149.293,259.813 146.329,256.85 142.679,256.85L90.739,256.85C87.089,256.85 84.125,259.813 84.125,263.464L84.125,315.404C84.125,319.054 87.089,322.018 90.739,322.018L142.679,322.018C146.329,322.018 149.293,319.054 149.293,315.404L149.293,263.464Z" style="fill:none;stroke:white;stroke-width:7.23px;stroke-linecap:round;stroke-linejoin:round;"/>
    </g>
    <g transform="matrix(0.920093,0.614892,-0.614892,0.920093,290.215,-66.5176)">
        <path d="M149.293,263.464C149.293,259.813 146.329,256.85 142.679,256.85L90.739,256.85C87.089,256.85 84.125,259.813 84.125,263.464L84.125,315.404C84.125,319.054 87.089,322.018 90.739,322.018L142.679,322.018C146.329,322.018 149.293,319.054 149.293,315.404L149.293,263.464Z" style="fill:none;stroke:white;stroke-width:7.23px;stroke-linecap:round;stroke-linejoin:round;"/>
    </g>
</svg>
